<mxfile host="app.diagrams.net" modified="2022-04-09T18:10:02.058Z" agent="5.0 (Windows NT 10.0; Win64; x64) AppleWebKit/537.36 (KHTML, like Gecko) Chrome/100.0.4896.75 Safari/537.36" etag="wfM0ZnWhkSP8d5qNjl42" version="17.2.4" type="github">
  <diagram id="WNU0OnEOr58vU2dcK8G2" name="Page-1">
    <mxGraphModel dx="2500" dy="896" grid="1" gridSize="10" guides="1" tooltips="1" connect="1" arrows="1" fold="1" page="1" pageScale="1" pageWidth="827" pageHeight="1169" math="0" shadow="0">
      <root>
        <mxCell id="0" />
        <mxCell id="1" parent="0" />
        <mxCell id="lC1LubLC5lz1J4YGzEKo-27" value="" style="edgeStyle=orthogonalEdgeStyle;rounded=0;orthogonalLoop=1;jettySize=auto;html=1;fontSize=9;" parent="1" source="lC1LubLC5lz1J4YGzEKo-2" edge="1">
          <mxGeometry relative="1" as="geometry">
            <mxPoint x="400" y="300" as="targetPoint" />
          </mxGeometry>
        </mxCell>
        <mxCell id="lC1LubLC5lz1J4YGzEKo-38" style="edgeStyle=orthogonalEdgeStyle;rounded=0;orthogonalLoop=1;jettySize=auto;html=1;fontSize=9;entryX=0;entryY=0.5;entryDx=0;entryDy=0;" parent="1" target="lC1LubLC5lz1J4YGzEKo-7" edge="1">
          <mxGeometry relative="1" as="geometry">
            <mxPoint x="660" y="110" as="targetPoint" />
            <mxPoint x="450" y="310" as="sourcePoint" />
            <Array as="points">
              <mxPoint x="440" y="310" />
              <mxPoint x="440" y="311" />
              <mxPoint x="460" y="311" />
              <mxPoint x="460" y="310" />
              <mxPoint x="570" y="310" />
              <mxPoint x="570" y="140" />
            </Array>
          </mxGeometry>
        </mxCell>
        <mxCell id="lC1LubLC5lz1J4YGzEKo-2" value="FIRST STEP&lt;br&gt;ADDRESS FORM" style="whiteSpace=wrap;html=1;" parent="1" vertex="1">
          <mxGeometry x="340" y="220" width="120" height="60" as="geometry" />
        </mxCell>
        <mxCell id="lC1LubLC5lz1J4YGzEKo-4" value="SECOND STEP&lt;br&gt;PAYMENT CHOICE" style="text;html=1;align=center;verticalAlign=middle;resizable=0;points=[];autosize=1;strokeColor=default;fillColor=none;" parent="1" vertex="1">
          <mxGeometry x="340" y="360" width="120" height="30" as="geometry" />
        </mxCell>
        <mxCell id="lC1LubLC5lz1J4YGzEKo-9" style="edgeStyle=orthogonalEdgeStyle;rounded=0;orthogonalLoop=1;jettySize=auto;html=1;exitX=0.5;exitY=1;exitDx=0;exitDy=0;" parent="1" source="lC1LubLC5lz1J4YGzEKo-7" edge="1">
          <mxGeometry relative="1" as="geometry">
            <mxPoint x="735" y="180" as="targetPoint" />
          </mxGeometry>
        </mxCell>
        <mxCell id="lC1LubLC5lz1J4YGzEKo-7" value="/checkout/pagos&lt;br&gt;POST" style="whiteSpace=wrap;html=1;" parent="1" vertex="1">
          <mxGeometry x="675" y="120" width="120" height="40" as="geometry" />
        </mxCell>
        <mxCell id="lC1LubLC5lz1J4YGzEKo-12" value="" style="edgeStyle=orthogonalEdgeStyle;rounded=0;orthogonalLoop=1;jettySize=auto;html=1;" parent="1" source="lC1LubLC5lz1J4YGzEKo-10" edge="1">
          <mxGeometry relative="1" as="geometry">
            <mxPoint x="670" y="240" as="targetPoint" />
            <Array as="points">
              <mxPoint x="735" y="220" />
              <mxPoint x="670" y="220" />
            </Array>
          </mxGeometry>
        </mxCell>
        <mxCell id="lC1LubLC5lz1J4YGzEKo-14" value="" style="edgeStyle=orthogonalEdgeStyle;rounded=0;orthogonalLoop=1;jettySize=auto;html=1;" parent="1" source="lC1LubLC5lz1J4YGzEKo-10" edge="1">
          <mxGeometry relative="1" as="geometry">
            <mxPoint x="805" y="240" as="targetPoint" />
            <Array as="points">
              <mxPoint x="735" y="220" />
              <mxPoint x="805" y="220" />
              <mxPoint x="805" y="240" />
            </Array>
          </mxGeometry>
        </mxCell>
        <mxCell id="lC1LubLC5lz1J4YGzEKo-10" value="req.query.ongoingPurchase?" style="text;html=1;align=center;verticalAlign=middle;resizable=0;points=[];autosize=1;strokeColor=default;fillColor=none;" parent="1" vertex="1">
          <mxGeometry x="650" y="180" width="170" height="20" as="geometry" />
        </mxCell>
        <mxCell id="lC1LubLC5lz1J4YGzEKo-18" value="" style="edgeStyle=orthogonalEdgeStyle;rounded=0;orthogonalLoop=1;jettySize=auto;html=1;" parent="1" source="lC1LubLC5lz1J4YGzEKo-15" edge="1">
          <mxGeometry relative="1" as="geometry">
            <mxPoint x="665" y="290" as="targetPoint" />
            <Array as="points">
              <mxPoint x="665" y="280" />
              <mxPoint x="665" y="280" />
            </Array>
          </mxGeometry>
        </mxCell>
        <mxCell id="lC1LubLC5lz1J4YGzEKo-15" value="NO" style="text;html=1;align=center;verticalAlign=middle;resizable=0;points=[];autosize=1;strokeColor=#b85450;fillColor=#f8cecc;" parent="1" vertex="1">
          <mxGeometry x="650" y="240" width="30" height="20" as="geometry" />
        </mxCell>
        <mxCell id="lC1LubLC5lz1J4YGzEKo-21" value="" style="edgeStyle=orthogonalEdgeStyle;rounded=0;orthogonalLoop=1;jettySize=auto;html=1;" parent="1" source="lC1LubLC5lz1J4YGzEKo-16" target="lC1LubLC5lz1J4YGzEKo-20" edge="1">
          <mxGeometry relative="1" as="geometry" />
        </mxCell>
        <mxCell id="lC1LubLC5lz1J4YGzEKo-16" value="YES" style="text;html=1;align=center;verticalAlign=middle;resizable=0;points=[];autosize=1;strokeColor=#82b366;fillColor=#d5e8d4;" parent="1" vertex="1">
          <mxGeometry x="780" y="240" width="40" height="20" as="geometry" />
        </mxCell>
        <mxCell id="GX86QxE9Dc3Bw4Pw90zu-1" style="edgeStyle=orthogonalEdgeStyle;rounded=0;orthogonalLoop=1;jettySize=auto;html=1;fontSize=9;entryX=0.95;entryY=0.967;entryDx=0;entryDy=0;entryPerimeter=0;" parent="1" source="lC1LubLC5lz1J4YGzEKo-19" target="lC1LubLC5lz1J4YGzEKo-28" edge="1">
          <mxGeometry relative="1" as="geometry">
            <mxPoint x="440" y="330" as="targetPoint" />
            <Array as="points">
              <mxPoint x="680" y="320" />
              <mxPoint x="440" y="320" />
              <mxPoint x="440" y="324" />
            </Array>
          </mxGeometry>
        </mxCell>
        <mxCell id="lC1LubLC5lz1J4YGzEKo-19" value="new addressStep()" style="text;html=1;align=center;verticalAlign=middle;resizable=0;points=[];autosize=1;strokeColor=#82b366;fillColor=#d5e8d4;" parent="1" vertex="1">
          <mxGeometry x="600" y="290" width="120" height="20" as="geometry" />
        </mxCell>
        <mxCell id="lC1LubLC5lz1J4YGzEKo-23" value="" style="edgeStyle=orthogonalEdgeStyle;rounded=0;orthogonalLoop=1;jettySize=auto;html=1;fontSize=9;" parent="1" source="lC1LubLC5lz1J4YGzEKo-20" target="lC1LubLC5lz1J4YGzEKo-22" edge="1">
          <mxGeometry relative="1" as="geometry">
            <Array as="points">
              <mxPoint x="800" y="320" />
              <mxPoint x="745" y="320" />
            </Array>
          </mxGeometry>
        </mxCell>
        <mxCell id="lC1LubLC5lz1J4YGzEKo-25" value="" style="edgeStyle=orthogonalEdgeStyle;rounded=0;orthogonalLoop=1;jettySize=auto;html=1;fontSize=9;entryX=1.014;entryY=0.5;entryDx=0;entryDy=0;entryPerimeter=0;" parent="1" source="lC1LubLC5lz1J4YGzEKo-20" target="lC1LubLC5lz1J4YGzEKo-24" edge="1">
          <mxGeometry relative="1" as="geometry">
            <mxPoint x="780" y="370" as="targetPoint" />
            <Array as="points">
              <mxPoint x="800" y="370" />
            </Array>
          </mxGeometry>
        </mxCell>
        <mxCell id="lC1LubLC5lz1J4YGzEKo-20" value="&lt;font style=&quot;font-size: 9px&quot;&gt;addressStep.findbyId?&lt;/font&gt;" style="text;html=1;align=center;verticalAlign=middle;resizable=0;points=[];autosize=1;strokeColor=default;" parent="1" vertex="1">
          <mxGeometry x="745" y="280" width="110" height="20" as="geometry" />
        </mxCell>
        <mxCell id="lC1LubLC5lz1J4YGzEKo-22" value="non-existent" style="whiteSpace=wrap;html=1;fillColor=#f8cecc;strokeColor=#b85450;" parent="1" vertex="1">
          <mxGeometry x="700" y="320" width="60" height="30" as="geometry" />
        </mxCell>
        <mxCell id="lC1LubLC5lz1J4YGzEKo-24" value="ownership" style="text;html=1;align=center;verticalAlign=middle;resizable=0;points=[];autosize=1;strokeColor=#b85450;fillColor=#f8cecc;" parent="1" vertex="1">
          <mxGeometry x="700" y="360" width="70" height="20" as="geometry" />
        </mxCell>
        <mxCell id="GX86QxE9Dc3Bw4Pw90zu-2" style="edgeStyle=orthogonalEdgeStyle;rounded=0;orthogonalLoop=1;jettySize=auto;html=1;fontSize=9;" parent="1" source="lC1LubLC5lz1J4YGzEKo-26" edge="1">
          <mxGeometry relative="1" as="geometry">
            <mxPoint x="680" y="320" as="targetPoint" />
          </mxGeometry>
        </mxCell>
        <mxCell id="lC1LubLC5lz1J4YGzEKo-26" value="FORIN + .save()" style="text;html=1;align=center;verticalAlign=middle;resizable=0;points=[];autosize=1;fontSize=9;strokeColor=#82b366;fillColor=#d5e8d4;" parent="1" vertex="1">
          <mxGeometry x="730" y="400" width="80" height="20" as="geometry" />
        </mxCell>
        <mxCell id="lC1LubLC5lz1J4YGzEKo-30" value="" style="edgeStyle=orthogonalEdgeStyle;rounded=0;orthogonalLoop=1;jettySize=auto;html=1;fontSize=9;" parent="1" source="lC1LubLC5lz1J4YGzEKo-28" edge="1">
          <mxGeometry relative="1" as="geometry">
            <mxPoint x="120" y="222" as="targetPoint" />
            <Array as="points">
              <mxPoint x="240" y="310" />
              <mxPoint x="240" y="220" />
              <mxPoint x="110" y="220" />
              <mxPoint x="110" y="222" />
            </Array>
          </mxGeometry>
        </mxCell>
        <mxCell id="lC1LubLC5lz1J4YGzEKo-39" value="" style="edgeStyle=orthogonalEdgeStyle;rounded=0;orthogonalLoop=1;jettySize=auto;html=1;fontSize=9;" parent="1" source="lC1LubLC5lz1J4YGzEKo-28" target="lC1LubLC5lz1J4YGzEKo-4" edge="1">
          <mxGeometry relative="1" as="geometry" />
        </mxCell>
        <mxCell id="lC1LubLC5lz1J4YGzEKo-28" value="compraAPI/&lt;br&gt;addDatosEnvio" style="text;html=1;align=center;verticalAlign=middle;resizable=0;points=[];autosize=1;strokeColor=#d6b656;fillColor=#fff2cc;fontSize=9;" parent="1" vertex="1">
          <mxGeometry x="360" y="295" width="80" height="30" as="geometry" />
        </mxCell>
        <mxCell id="lC1LubLC5lz1J4YGzEKo-36" value="" style="rounded=0;whiteSpace=wrap;html=1;labelBackgroundColor=#FFCCCC;fontSize=9;strokeColor=#d6b656;fillColor=#fff2cc;" parent="1" vertex="1">
          <mxGeometry x="-80" y="190" width="190" height="170" as="geometry" />
        </mxCell>
        <mxCell id="lC1LubLC5lz1J4YGzEKo-37" value="Redux&lt;br&gt;" style="text;html=1;align=center;verticalAlign=middle;resizable=0;points=[];autosize=1;strokeColor=#d79b00;fillColor=#ffe6cc;fontSize=9;" parent="1" vertex="1">
          <mxGeometry x="-10" y="210" width="40" height="20" as="geometry" />
        </mxCell>
        <mxCell id="lC1LubLC5lz1J4YGzEKo-46" value="" style="edgeStyle=orthogonalEdgeStyle;rounded=0;orthogonalLoop=1;jettySize=auto;html=1;fontSize=9;entryX=0.496;entryY=0.056;entryDx=0;entryDy=0;entryPerimeter=0;" parent="1" source="lC1LubLC5lz1J4YGzEKo-43" target="lC1LubLC5lz1J4YGzEKo-47" edge="1">
          <mxGeometry relative="1" as="geometry">
            <mxPoint x="400" y="480" as="targetPoint" />
            <Array as="points">
              <mxPoint x="400" y="1452" />
            </Array>
          </mxGeometry>
        </mxCell>
        <mxCell id="tTHSPChEhPKR0PGT31vi-97" style="edgeStyle=orthogonalEdgeStyle;rounded=0;orthogonalLoop=1;jettySize=auto;html=1;fontColor=#000000;entryX=1;entryY=0.941;entryDx=0;entryDy=0;entryPerimeter=0;" parent="1" source="lC1LubLC5lz1J4YGzEKo-43" target="lC1LubLC5lz1J4YGzEKo-36" edge="1">
          <mxGeometry relative="1" as="geometry">
            <mxPoint x="250" y="350" as="targetPoint" />
            <Array as="points">
              <mxPoint x="280" y="435" />
              <mxPoint x="280" y="350" />
            </Array>
          </mxGeometry>
        </mxCell>
        <mxCell id="lC1LubLC5lz1J4YGzEKo-43" value="compraAPI/&lt;br&gt;addDatosPayment" style="text;html=1;align=center;verticalAlign=middle;resizable=0;points=[];autosize=1;strokeColor=#d6b656;fillColor=#fff2cc;fontSize=9;" parent="1" vertex="1">
          <mxGeometry x="355" y="420" width="90" height="30" as="geometry" />
        </mxCell>
        <mxCell id="GX86QxE9Dc3Bw4Pw90zu-6" style="edgeStyle=orthogonalEdgeStyle;rounded=0;orthogonalLoop=1;jettySize=auto;html=1;fontSize=9;exitX=1.044;exitY=0.233;exitDx=0;exitDy=0;exitPerimeter=0;" parent="1" source="lC1LubLC5lz1J4YGzEKo-43" edge="1">
          <mxGeometry relative="1" as="geometry">
            <mxPoint x="680" y="495" as="targetPoint" />
            <Array as="points">
              <mxPoint x="570" y="427" />
              <mxPoint x="570" y="495" />
            </Array>
          </mxGeometry>
        </mxCell>
        <mxCell id="tTHSPChEhPKR0PGT31vi-1" style="edgeStyle=orthogonalEdgeStyle;rounded=0;orthogonalLoop=1;jettySize=auto;html=1;entryX=0.568;entryY=-0.024;entryDx=0;entryDy=0;entryPerimeter=0;" parent="1" source="lC1LubLC5lz1J4YGzEKo-47" target="tTHSPChEhPKR0PGT31vi-2" edge="1">
          <mxGeometry relative="1" as="geometry">
            <mxPoint x="395" y="1510" as="targetPoint" />
          </mxGeometry>
        </mxCell>
        <mxCell id="lC1LubLC5lz1J4YGzEKo-47" value="THIRD STEP&lt;br&gt;CONFIRM" style="text;html=1;align=center;verticalAlign=middle;resizable=0;points=[];autosize=1;strokeColor=default;fillColor=none;" parent="1" vertex="1">
          <mxGeometry x="355" y="1460" width="90" height="30" as="geometry" />
        </mxCell>
        <mxCell id="GX86QxE9Dc3Bw4Pw90zu-3" value="" style="endArrow=classic;html=1;rounded=0;fontSize=9;entryX=0.888;entryY=0.1;entryDx=0;entryDy=0;entryPerimeter=0;" parent="1" target="lC1LubLC5lz1J4YGzEKo-26" edge="1">
          <mxGeometry width="50" height="50" relative="1" as="geometry">
            <mxPoint x="800" y="370" as="sourcePoint" />
            <mxPoint x="770" y="480" as="targetPoint" />
          </mxGeometry>
        </mxCell>
        <mxCell id="GX86QxE9Dc3Bw4Pw90zu-5" value="" style="endArrow=classic;html=1;rounded=0;fontSize=9;exitX=0.5;exitY=1.1;exitDx=0;exitDy=0;exitPerimeter=0;" parent="1" source="lC1LubLC5lz1J4YGzEKo-4" edge="1">
          <mxGeometry width="50" height="50" relative="1" as="geometry">
            <mxPoint x="400" y="420" as="sourcePoint" />
            <mxPoint x="400" y="430" as="targetPoint" />
          </mxGeometry>
        </mxCell>
        <mxCell id="GX86QxE9Dc3Bw4Pw90zu-9" style="edgeStyle=orthogonalEdgeStyle;rounded=0;orthogonalLoop=1;jettySize=auto;html=1;fontSize=9;" parent="1" source="GX86QxE9Dc3Bw4Pw90zu-8" edge="1">
          <mxGeometry relative="1" as="geometry">
            <mxPoint x="750" y="540" as="targetPoint" />
          </mxGeometry>
        </mxCell>
        <mxCell id="GX86QxE9Dc3Bw4Pw90zu-8" value="/checkout/pagos/payment&lt;br&gt;POST" style="whiteSpace=wrap;html=1;" parent="1" vertex="1">
          <mxGeometry x="680" y="475" width="140" height="40" as="geometry" />
        </mxCell>
        <mxCell id="tTHSPChEhPKR0PGT31vi-6" style="edgeStyle=orthogonalEdgeStyle;rounded=0;orthogonalLoop=1;jettySize=auto;html=1;" parent="1" source="GX86QxE9Dc3Bw4Pw90zu-10" target="GX86QxE9Dc3Bw4Pw90zu-12" edge="1">
          <mxGeometry relative="1" as="geometry" />
        </mxCell>
        <mxCell id="GX86QxE9Dc3Bw4Pw90zu-10" value="req.query.ongoingPurchase?" style="text;html=1;align=center;verticalAlign=middle;resizable=0;points=[];autosize=1;strokeColor=default;fillColor=none;" parent="1" vertex="1">
          <mxGeometry x="670" y="540" width="170" height="20" as="geometry" />
        </mxCell>
        <mxCell id="tTHSPChEhPKR0PGT31vi-4" style="edgeStyle=orthogonalEdgeStyle;rounded=0;orthogonalLoop=1;jettySize=auto;html=1;" parent="1" source="GX86QxE9Dc3Bw4Pw90zu-11" edge="1">
          <mxGeometry relative="1" as="geometry">
            <mxPoint x="835" y="620" as="targetPoint" />
          </mxGeometry>
        </mxCell>
        <mxCell id="GX86QxE9Dc3Bw4Pw90zu-11" value="NO" style="text;html=1;align=center;verticalAlign=middle;resizable=0;points=[];autosize=1;strokeColor=#b85450;fillColor=#f8cecc;" parent="1" vertex="1">
          <mxGeometry x="820" y="585" width="30" height="20" as="geometry" />
        </mxCell>
        <mxCell id="tTHSPChEhPKR0PGT31vi-9" style="edgeStyle=orthogonalEdgeStyle;rounded=0;orthogonalLoop=1;jettySize=auto;html=1;" parent="1" source="GX86QxE9Dc3Bw4Pw90zu-12" edge="1">
          <mxGeometry relative="1" as="geometry">
            <mxPoint x="695" y="620" as="targetPoint" />
          </mxGeometry>
        </mxCell>
        <mxCell id="GX86QxE9Dc3Bw4Pw90zu-12" value="YES" style="text;html=1;align=center;verticalAlign=middle;resizable=0;points=[];autosize=1;strokeColor=#82b366;fillColor=#d5e8d4;" parent="1" vertex="1">
          <mxGeometry x="675" y="585" width="40" height="20" as="geometry" />
        </mxCell>
        <mxCell id="tTHSPChEhPKR0PGT31vi-2" value="compraAPI/&lt;br&gt;addDatosPayment" style="text;html=1;align=center;verticalAlign=middle;resizable=0;points=[];autosize=1;strokeColor=#d6b656;fillColor=#fff2cc;fontSize=9;" parent="1" vertex="1">
          <mxGeometry x="350" y="1520" width="90" height="30" as="geometry" />
        </mxCell>
        <mxCell id="tTHSPChEhPKR0PGT31vi-5" value="non-existent" style="whiteSpace=wrap;html=1;fillColor=#f8cecc;strokeColor=#b85450;" parent="1" vertex="1">
          <mxGeometry x="805" y="620" width="60" height="30" as="geometry" />
        </mxCell>
        <mxCell id="tTHSPChEhPKR0PGT31vi-7" value="" style="endArrow=classic;html=1;rounded=0;" parent="1" edge="1">
          <mxGeometry width="50" height="50" relative="1" as="geometry">
            <mxPoint x="750" y="580" as="sourcePoint" />
            <mxPoint x="840" y="580" as="targetPoint" />
          </mxGeometry>
        </mxCell>
        <mxCell id="tTHSPChEhPKR0PGT31vi-11" style="edgeStyle=orthogonalEdgeStyle;rounded=0;orthogonalLoop=1;jettySize=auto;html=1;" parent="1" source="tTHSPChEhPKR0PGT31vi-10" edge="1">
          <mxGeometry relative="1" as="geometry">
            <mxPoint x="670" y="660" as="targetPoint" />
          </mxGeometry>
        </mxCell>
        <mxCell id="tTHSPChEhPKR0PGT31vi-10" value="&lt;font style=&quot;font-size: 9px&quot;&gt;addressStep.findbyId?&lt;/font&gt;" style="text;html=1;align=center;verticalAlign=middle;resizable=0;points=[];autosize=1;strokeColor=default;" parent="1" vertex="1">
          <mxGeometry x="635" y="620" width="110" height="20" as="geometry" />
        </mxCell>
        <mxCell id="tTHSPChEhPKR0PGT31vi-12" value="non-existent, hay q llenar el address Form 1ero" style="whiteSpace=wrap;html=1;fillColor=#f8cecc;strokeColor=#b85450;" parent="1" vertex="1">
          <mxGeometry x="550" y="650" width="120" height="40" as="geometry" />
        </mxCell>
        <mxCell id="tTHSPChEhPKR0PGT31vi-13" value="" style="endArrow=classic;html=1;rounded=0;edgeStyle=orthogonalEdgeStyle;" parent="1" edge="1">
          <mxGeometry width="50" height="50" relative="1" as="geometry">
            <mxPoint x="690" y="660" as="sourcePoint" />
            <mxPoint x="670" y="700" as="targetPoint" />
            <Array as="points">
              <mxPoint x="690" y="700" />
              <mxPoint x="670" y="700" />
            </Array>
          </mxGeometry>
        </mxCell>
        <mxCell id="tTHSPChEhPKR0PGT31vi-14" value="" style="endArrow=classic;html=1;rounded=0;" parent="1" edge="1">
          <mxGeometry width="50" height="50" relative="1" as="geometry">
            <mxPoint x="690" y="700" as="sourcePoint" />
            <mxPoint x="690" y="740" as="targetPoint" />
          </mxGeometry>
        </mxCell>
        <mxCell id="tTHSPChEhPKR0PGT31vi-15" value="ownership" style="text;html=1;align=center;verticalAlign=middle;resizable=0;points=[];autosize=1;strokeColor=#b85450;fillColor=#f8cecc;" parent="1" vertex="1">
          <mxGeometry x="600" y="700" width="70" height="20" as="geometry" />
        </mxCell>
        <mxCell id="tTHSPChEhPKR0PGT31vi-17" style="edgeStyle=none;rounded=0;orthogonalLoop=1;jettySize=auto;html=1;entryX=0.683;entryY=-0.128;entryDx=0;entryDy=0;entryPerimeter=0;" parent="1" source="tTHSPChEhPKR0PGT31vi-16" target="tTHSPChEhPKR0PGT31vi-19" edge="1">
          <mxGeometry relative="1" as="geometry">
            <mxPoint x="660" y="750" as="targetPoint" />
          </mxGeometry>
        </mxCell>
        <mxCell id="tTHSPChEhPKR0PGT31vi-18" style="edgeStyle=none;rounded=0;orthogonalLoop=1;jettySize=auto;html=1;entryX=0.012;entryY=-0.085;entryDx=0;entryDy=0;entryPerimeter=0;" parent="1" source="tTHSPChEhPKR0PGT31vi-16" target="tTHSPChEhPKR0PGT31vi-20" edge="1">
          <mxGeometry relative="1" as="geometry">
            <mxPoint x="720" y="750" as="targetPoint" />
          </mxGeometry>
        </mxCell>
        <mxCell id="tTHSPChEhPKR0PGT31vi-16" value="req.body.productos" style="text;html=1;align=center;verticalAlign=middle;resizable=0;points=[];autosize=1;fillColor=#dae8fc;strokeColor=#6c8ebf;" parent="1" vertex="1">
          <mxGeometry x="630" y="780" width="120" height="20" as="geometry" />
        </mxCell>
        <mxCell id="tTHSPChEhPKR0PGT31vi-24" style="edgeStyle=none;rounded=0;orthogonalLoop=1;jettySize=auto;html=1;" parent="1" source="tTHSPChEhPKR0PGT31vi-19" edge="1">
          <mxGeometry relative="1" as="geometry">
            <mxPoint x="660" y="860" as="targetPoint" />
          </mxGeometry>
        </mxCell>
        <mxCell id="tTHSPChEhPKR0PGT31vi-19" value="YES" style="text;html=1;align=center;verticalAlign=middle;resizable=0;points=[];autosize=1;strokeColor=#82b366;fillColor=#d5e8d4;" parent="1" vertex="1">
          <mxGeometry x="640" y="820" width="40" height="20" as="geometry" />
        </mxCell>
        <mxCell id="tTHSPChEhPKR0PGT31vi-20" value="NO" style="text;html=1;align=center;verticalAlign=middle;resizable=0;points=[];autosize=1;strokeColor=#b85450;fillColor=#f8cecc;" parent="1" vertex="1">
          <mxGeometry x="720" y="820" width="30" height="20" as="geometry" />
        </mxCell>
        <mxCell id="tTHSPChEhPKR0PGT31vi-23" style="edgeStyle=none;rounded=0;orthogonalLoop=1;jettySize=auto;html=1;" parent="1" source="tTHSPChEhPKR0PGT31vi-21" edge="1">
          <mxGeometry relative="1" as="geometry">
            <mxPoint x="690" y="780" as="targetPoint" />
          </mxGeometry>
        </mxCell>
        <mxCell id="tTHSPChEhPKR0PGT31vi-21" value="YES" style="text;html=1;align=center;verticalAlign=middle;resizable=0;points=[];autosize=1;strokeColor=#82b366;fillColor=#d5e8d4;" parent="1" vertex="1">
          <mxGeometry x="670" y="740" width="40" height="20" as="geometry" />
        </mxCell>
        <mxCell id="tTHSPChEhPKR0PGT31vi-26" style="edgeStyle=none;rounded=0;orthogonalLoop=1;jettySize=auto;html=1;entryX=0;entryY=0.4;entryDx=0;entryDy=0;entryPerimeter=0;" parent="1" source="tTHSPChEhPKR0PGT31vi-25" target="tTHSPChEhPKR0PGT31vi-27" edge="1">
          <mxGeometry relative="1" as="geometry">
            <mxPoint x="780" y="880" as="targetPoint" />
          </mxGeometry>
        </mxCell>
        <mxCell id="tTHSPChEhPKR0PGT31vi-25" value="&lt;font style=&quot;font-size: 9px&quot;&gt;Promise.all&lt;br&gt;(productos.map)&lt;br&gt;Producto.findbyId?&lt;/font&gt;" style="text;html=1;align=center;verticalAlign=middle;resizable=0;points=[];autosize=1;strokeColor=default;" parent="1" vertex="1">
          <mxGeometry x="610" y="860" width="90" height="50" as="geometry" />
        </mxCell>
        <mxCell id="tTHSPChEhPKR0PGT31vi-27" value="La idea es hacer un buscar c/prod &lt;br&gt;en el back para evitar q nos caguen &lt;br&gt;con precio, nombres, tamaños.&lt;br&gt;Y ademas controlar STOCK" style="text;html=1;align=center;verticalAlign=middle;resizable=0;points=[];autosize=1;strokeColor=#9673a6;glass=0;sketch=0;fillColor=#e1d5e7;" parent="1" vertex="1">
          <mxGeometry x="780" y="855" width="210" height="60" as="geometry" />
        </mxCell>
        <mxCell id="tTHSPChEhPKR0PGT31vi-29" value="NO" style="text;html=1;align=center;verticalAlign=middle;resizable=0;points=[];autosize=1;strokeColor=#b85450;fillColor=#f8cecc;" parent="1" vertex="1">
          <mxGeometry x="680" y="930" width="30" height="20" as="geometry" />
        </mxCell>
        <mxCell id="tTHSPChEhPKR0PGT31vi-33" style="edgeStyle=none;rounded=0;orthogonalLoop=1;jettySize=auto;html=1;" parent="1" source="tTHSPChEhPKR0PGT31vi-30" edge="1">
          <mxGeometry relative="1" as="geometry">
            <mxPoint x="620" y="970" as="targetPoint" />
          </mxGeometry>
        </mxCell>
        <mxCell id="tTHSPChEhPKR0PGT31vi-30" value="YES" style="text;html=1;align=center;verticalAlign=middle;resizable=0;points=[];autosize=1;strokeColor=#82b366;fillColor=#d5e8d4;" parent="1" vertex="1">
          <mxGeometry x="600" y="930" width="40" height="20" as="geometry" />
        </mxCell>
        <mxCell id="tTHSPChEhPKR0PGT31vi-31" style="edgeStyle=none;rounded=0;orthogonalLoop=1;jettySize=auto;html=1;entryX=0.639;entryY=-0.128;entryDx=0;entryDy=0;entryPerimeter=0;exitX=0.424;exitY=0.983;exitDx=0;exitDy=0;exitPerimeter=0;" parent="1" source="tTHSPChEhPKR0PGT31vi-25" target="tTHSPChEhPKR0PGT31vi-30" edge="1">
          <mxGeometry relative="1" as="geometry">
            <mxPoint x="677.3200000000002" y="827.44" as="targetPoint" />
            <mxPoint x="650" y="920" as="sourcePoint" />
          </mxGeometry>
        </mxCell>
        <mxCell id="tTHSPChEhPKR0PGT31vi-32" style="edgeStyle=none;rounded=0;orthogonalLoop=1;jettySize=auto;html=1;exitX=0.511;exitY=1.001;exitDx=0;exitDy=0;exitPerimeter=0;" parent="1" source="tTHSPChEhPKR0PGT31vi-25" target="tTHSPChEhPKR0PGT31vi-29" edge="1">
          <mxGeometry relative="1" as="geometry">
            <mxPoint x="635.56" y="937.44" as="targetPoint" />
            <mxPoint x="658.1600000000003" y="919.1500000000001" as="sourcePoint" />
          </mxGeometry>
        </mxCell>
        <mxCell id="tTHSPChEhPKR0PGT31vi-37" style="edgeStyle=none;rounded=0;orthogonalLoop=1;jettySize=auto;html=1;" parent="1" source="tTHSPChEhPKR0PGT31vi-34" edge="1">
          <mxGeometry relative="1" as="geometry">
            <mxPoint x="635" y="1050" as="targetPoint" />
          </mxGeometry>
        </mxCell>
        <mxCell id="tTHSPChEhPKR0PGT31vi-34" value="Tengo 2 arr:&lt;br&gt;a. productos (req.body)&lt;br&gt;b. array prods antihacking" style="text;html=1;align=center;verticalAlign=middle;resizable=0;points=[];autosize=1;strokeColor=default;" parent="1" vertex="1">
          <mxGeometry x="560" y="975" width="150" height="50" as="geometry" />
        </mxCell>
        <mxCell id="tTHSPChEhPKR0PGT31vi-39" style="edgeStyle=none;rounded=0;orthogonalLoop=1;jettySize=auto;html=1;" parent="1" source="tTHSPChEhPKR0PGT31vi-38" edge="1">
          <mxGeometry relative="1" as="geometry">
            <mxPoint x="610" y="1090" as="targetPoint" />
          </mxGeometry>
        </mxCell>
        <mxCell id="tTHSPChEhPKR0PGT31vi-40" style="edgeStyle=none;rounded=0;orthogonalLoop=1;jettySize=auto;html=1;" parent="1" source="tTHSPChEhPKR0PGT31vi-38" edge="1">
          <mxGeometry relative="1" as="geometry">
            <mxPoint x="670" y="1090" as="targetPoint" />
          </mxGeometry>
        </mxCell>
        <mxCell id="tTHSPChEhPKR0PGT31vi-38" value=".find(_idTamaño)&amp;nbsp;" style="text;html=1;align=center;verticalAlign=middle;resizable=0;points=[];autosize=1;strokeColor=default;" parent="1" vertex="1">
          <mxGeometry x="585" y="1050" width="110" height="20" as="geometry" />
        </mxCell>
        <mxCell id="tTHSPChEhPKR0PGT31vi-49" value="" style="edgeStyle=none;rounded=0;orthogonalLoop=1;jettySize=auto;html=1;fontColor=#990000;" parent="1" source="tTHSPChEhPKR0PGT31vi-41" target="tTHSPChEhPKR0PGT31vi-48" edge="1">
          <mxGeometry relative="1" as="geometry" />
        </mxCell>
        <mxCell id="tTHSPChEhPKR0PGT31vi-41" value="YES" style="text;html=1;align=center;verticalAlign=middle;resizable=0;points=[];autosize=1;strokeColor=#82b366;fillColor=#d5e8d4;" parent="1" vertex="1">
          <mxGeometry x="580" y="1090" width="40" height="20" as="geometry" />
        </mxCell>
        <mxCell id="tTHSPChEhPKR0PGT31vi-42" value="_idTamaño&amp;nbsp;&lt;br&gt;no coincide" style="text;html=1;align=center;verticalAlign=middle;resizable=0;points=[];autosize=1;strokeColor=#b85450;fillColor=#f8cecc;" parent="1" vertex="1">
          <mxGeometry x="670" y="1085" width="80" height="30" as="geometry" />
        </mxCell>
        <mxCell id="tTHSPChEhPKR0PGT31vi-43" value="" style="endArrow=classic;html=1;rounded=0;exitX=1;exitY=0.5;exitDx=0;exitDy=0;exitPerimeter=0;fillColor=#f8cecc;strokeColor=#b85450;" parent="1" source="tTHSPChEhPKR0PGT31vi-29" edge="1">
          <mxGeometry width="50" height="50" relative="1" as="geometry">
            <mxPoint x="710" y="970" as="sourcePoint" />
            <mxPoint x="750" y="940" as="targetPoint" />
          </mxGeometry>
        </mxCell>
        <mxCell id="tTHSPChEhPKR0PGT31vi-44" value="Chequear xq no salta&lt;br&gt;el error en Promise.all" style="text;html=1;align=center;verticalAlign=middle;resizable=0;points=[];autosize=1;strokeColor=#b85450;fillColor=#f8cecc;fontColor=#990000;" parent="1" vertex="1">
          <mxGeometry x="750" y="930" width="130" height="30" as="geometry" />
        </mxCell>
        <mxCell id="tTHSPChEhPKR0PGT31vi-50" style="edgeStyle=none;rounded=0;orthogonalLoop=1;jettySize=auto;html=1;fontColor=#990000;" parent="1" source="tTHSPChEhPKR0PGT31vi-48" edge="1">
          <mxGeometry relative="1" as="geometry">
            <mxPoint x="630" y="1180" as="targetPoint" />
          </mxGeometry>
        </mxCell>
        <mxCell id="tTHSPChEhPKR0PGT31vi-52" style="edgeStyle=none;rounded=0;orthogonalLoop=1;jettySize=auto;html=1;fontColor=#990000;entryX=0.508;entryY=-0.041;entryDx=0;entryDy=0;entryPerimeter=0;" parent="1" source="tTHSPChEhPKR0PGT31vi-48" target="tTHSPChEhPKR0PGT31vi-53" edge="1">
          <mxGeometry relative="1" as="geometry">
            <mxPoint x="570" y="1180" as="targetPoint" />
          </mxGeometry>
        </mxCell>
        <mxCell id="tTHSPChEhPKR0PGT31vi-48" value="Stock?" style="text;html=1;align=center;verticalAlign=middle;resizable=0;points=[];autosize=1;strokeColor=default;" parent="1" vertex="1">
          <mxGeometry x="575" y="1140" width="50" height="20" as="geometry" />
        </mxCell>
        <mxCell id="tTHSPChEhPKR0PGT31vi-51" value="No hay stock&amp;nbsp;&lt;br&gt;del prod" style="text;html=1;align=center;verticalAlign=middle;resizable=0;points=[];autosize=1;strokeColor=#b85450;fillColor=#f8cecc;" parent="1" vertex="1">
          <mxGeometry x="610" y="1180" width="90" height="30" as="geometry" />
        </mxCell>
        <mxCell id="tTHSPChEhPKR0PGT31vi-55" style="edgeStyle=none;rounded=0;orthogonalLoop=1;jettySize=auto;html=1;fontColor=#990000;" parent="1" source="tTHSPChEhPKR0PGT31vi-53" edge="1">
          <mxGeometry relative="1" as="geometry">
            <mxPoint x="540" y="1230" as="targetPoint" />
          </mxGeometry>
        </mxCell>
        <mxCell id="tTHSPChEhPKR0PGT31vi-56" style="edgeStyle=none;rounded=0;orthogonalLoop=1;jettySize=auto;html=1;fontColor=#990000;" parent="1" source="tTHSPChEhPKR0PGT31vi-53" edge="1">
          <mxGeometry relative="1" as="geometry">
            <mxPoint x="590" y="1230" as="targetPoint" />
          </mxGeometry>
        </mxCell>
        <mxCell id="tTHSPChEhPKR0PGT31vi-53" value="qty&amp;gt;Stock" style="text;html=1;align=center;verticalAlign=middle;resizable=0;points=[];autosize=1;strokeColor=default;" parent="1" vertex="1">
          <mxGeometry x="530" y="1190" width="70" height="20" as="geometry" />
        </mxCell>
        <mxCell id="tTHSPChEhPKR0PGT31vi-61" style="edgeStyle=none;rounded=0;orthogonalLoop=1;jettySize=auto;html=1;fontColor=#990000;entryX=0.317;entryY=-0.15;entryDx=0;entryDy=0;entryPerimeter=0;" parent="1" source="tTHSPChEhPKR0PGT31vi-57" target="tTHSPChEhPKR0PGT31vi-63" edge="1">
          <mxGeometry relative="1" as="geometry">
            <mxPoint x="560" y="1280" as="targetPoint" />
          </mxGeometry>
        </mxCell>
        <mxCell id="tTHSPChEhPKR0PGT31vi-57" value="OK" style="text;html=1;align=center;verticalAlign=middle;resizable=0;points=[];autosize=1;strokeColor=#82b366;fillColor=#d5e8d4;" parent="1" vertex="1">
          <mxGeometry x="515" y="1230" width="30" height="20" as="geometry" />
        </mxCell>
        <mxCell id="tTHSPChEhPKR0PGT31vi-59" style="edgeStyle=none;rounded=0;orthogonalLoop=1;jettySize=auto;html=1;fontColor=#990000;fillColor=#f8cecc;strokeColor=#b85450;" parent="1" source="tTHSPChEhPKR0PGT31vi-58" edge="1">
          <mxGeometry relative="1" as="geometry">
            <mxPoint x="770" y="1240" as="targetPoint" />
          </mxGeometry>
        </mxCell>
        <mxCell id="tTHSPChEhPKR0PGT31vi-62" style="edgeStyle=none;rounded=0;orthogonalLoop=1;jettySize=auto;html=1;fontColor=#990000;entryX=0.657;entryY=-0.15;entryDx=0;entryDy=0;entryPerimeter=0;" parent="1" source="tTHSPChEhPKR0PGT31vi-58" target="tTHSPChEhPKR0PGT31vi-63" edge="1">
          <mxGeometry relative="1" as="geometry">
            <mxPoint x="590" y="1270" as="targetPoint" />
          </mxGeometry>
        </mxCell>
        <mxCell id="tTHSPChEhPKR0PGT31vi-58" value="i.qty = stock" style="text;html=1;align=center;verticalAlign=middle;resizable=0;points=[];autosize=1;strokeColor=#b85450;fillColor=#f8cecc;" parent="1" vertex="1">
          <mxGeometry x="580" y="1230" width="80" height="20" as="geometry" />
        </mxCell>
        <mxCell id="tTHSPChEhPKR0PGT31vi-60" value="VER COMO&lt;br&gt;HAGO P/&lt;br&gt;NOTIFICAR&amp;nbsp;&lt;br&gt;CAMBIO STOCK" style="shape=process;whiteSpace=wrap;html=1;backgroundOutline=1;glass=0;sketch=0;strokeColor=#b85450;size=0.041666666666666664;fillColor=#f8cecc;fontColor=#990000;" parent="1" vertex="1">
          <mxGeometry x="775" y="1210" width="120" height="60" as="geometry" />
        </mxCell>
        <mxCell id="tTHSPChEhPKR0PGT31vi-64" style="edgeStyle=none;rounded=0;orthogonalLoop=1;jettySize=auto;html=1;fontColor=#000000;" parent="1" source="tTHSPChEhPKR0PGT31vi-63" edge="1">
          <mxGeometry relative="1" as="geometry">
            <mxPoint x="640" y="1340" as="targetPoint" />
          </mxGeometry>
        </mxCell>
        <mxCell id="tTHSPChEhPKR0PGT31vi-63" value="Final array +&amp;nbsp; Total" style="text;html=1;align=center;verticalAlign=middle;resizable=0;points=[];autosize=1;strokeColor=default;fillColor=none;fontColor=#000000;" parent="1" vertex="1">
          <mxGeometry x="515" y="1280" width="110" height="20" as="geometry" />
        </mxCell>
        <mxCell id="tTHSPChEhPKR0PGT31vi-67" style="edgeStyle=none;rounded=0;orthogonalLoop=1;jettySize=auto;html=1;entryX=0.006;entryY=0.32;entryDx=0;entryDy=0;entryPerimeter=0;fontColor=#000000;" parent="1" source="tTHSPChEhPKR0PGT31vi-65" target="tTHSPChEhPKR0PGT31vi-66" edge="1">
          <mxGeometry relative="1" as="geometry" />
        </mxCell>
        <mxCell id="tTHSPChEhPKR0PGT31vi-68" style="edgeStyle=none;rounded=0;orthogonalLoop=1;jettySize=auto;html=1;fontColor=#000000;" parent="1" source="tTHSPChEhPKR0PGT31vi-65" edge="1">
          <mxGeometry relative="1" as="geometry">
            <mxPoint x="650" y="1390" as="targetPoint" />
          </mxGeometry>
        </mxCell>
        <mxCell id="tTHSPChEhPKR0PGT31vi-69" style="edgeStyle=none;rounded=0;orthogonalLoop=1;jettySize=auto;html=1;fontColor=#000000;" parent="1" source="tTHSPChEhPKR0PGT31vi-65" edge="1">
          <mxGeometry relative="1" as="geometry">
            <mxPoint x="700" y="1400" as="targetPoint" />
          </mxGeometry>
        </mxCell>
        <mxCell id="tTHSPChEhPKR0PGT31vi-65" value="&lt;font style=&quot;font-size: 9px&quot;&gt;paymentStep.findOne&lt;br&gt;(deliveryAddress)?&lt;/font&gt;" style="text;html=1;align=center;verticalAlign=middle;resizable=0;points=[];autosize=1;strokeColor=default;" parent="1" vertex="1">
          <mxGeometry x="625" y="1330" width="100" height="40" as="geometry" />
        </mxCell>
        <mxCell id="tTHSPChEhPKR0PGT31vi-66" value="Chequear si existe&lt;br&gt;o no payment, p/&lt;br&gt;saber si actualizar o crear&lt;br&gt;nuevo pago" style="text;html=1;align=center;verticalAlign=middle;resizable=0;points=[];autosize=1;strokeColor=#9673a6;glass=0;sketch=0;fillColor=#e1d5e7;" parent="1" vertex="1">
          <mxGeometry x="810" y="1320" width="150" height="60" as="geometry" />
        </mxCell>
        <mxCell id="tTHSPChEhPKR0PGT31vi-79" style="edgeStyle=orthogonalEdgeStyle;rounded=0;orthogonalLoop=1;jettySize=auto;html=1;fontColor=#000000;" parent="1" source="tTHSPChEhPKR0PGT31vi-70" edge="1">
          <mxGeometry relative="1" as="geometry">
            <mxPoint x="540" y="1480" as="targetPoint" />
            <Array as="points">
              <mxPoint x="590" y="1480" />
              <mxPoint x="550" y="1480" />
            </Array>
          </mxGeometry>
        </mxCell>
        <mxCell id="tTHSPChEhPKR0PGT31vi-70" value="req.body.formaDePago&lt;br&gt;+ productos&lt;br&gt;+ total" style="text;html=1;align=center;verticalAlign=middle;resizable=0;points=[];autosize=1;fillColor=#dae8fc;strokeColor=#6c8ebf;" parent="1" vertex="1">
          <mxGeometry x="520" y="1425" width="140" height="50" as="geometry" />
        </mxCell>
        <mxCell id="tTHSPChEhPKR0PGT31vi-72" style="edgeStyle=none;rounded=0;orthogonalLoop=1;jettySize=auto;html=1;fontColor=#000000;" parent="1" source="tTHSPChEhPKR0PGT31vi-71" edge="1">
          <mxGeometry relative="1" as="geometry">
            <mxPoint x="710" y="1440" as="targetPoint" />
          </mxGeometry>
        </mxCell>
        <mxCell id="tTHSPChEhPKR0PGT31vi-71" value="NO" style="text;html=1;align=center;verticalAlign=middle;resizable=0;points=[];autosize=1;strokeColor=#b85450;fillColor=#f8cecc;" parent="1" vertex="1">
          <mxGeometry x="695" y="1400" width="30" height="20" as="geometry" />
        </mxCell>
        <mxCell id="tTHSPChEhPKR0PGT31vi-78" style="edgeStyle=orthogonalEdgeStyle;rounded=0;orthogonalLoop=1;jettySize=auto;html=1;fontColor=#000000;" parent="1" source="tTHSPChEhPKR0PGT31vi-73" edge="1">
          <mxGeometry relative="1" as="geometry">
            <mxPoint x="450" y="440" as="targetPoint" />
            <Array as="points">
              <mxPoint x="730" y="1480" />
              <mxPoint x="510" y="1480" />
              <mxPoint x="510" y="440" />
            </Array>
          </mxGeometry>
        </mxCell>
        <mxCell id="tTHSPChEhPKR0PGT31vi-73" value="new paymentStep()" style="text;html=1;align=center;verticalAlign=middle;resizable=0;points=[];autosize=1;strokeColor=default;" parent="1" vertex="1">
          <mxGeometry x="670" y="1440" width="120" height="20" as="geometry" />
        </mxCell>
        <mxCell id="tTHSPChEhPKR0PGT31vi-77" style="edgeStyle=none;rounded=0;orthogonalLoop=1;jettySize=auto;html=1;entryX=0.814;entryY=0.01;entryDx=0;entryDy=0;entryPerimeter=0;fontColor=#000000;" parent="1" source="tTHSPChEhPKR0PGT31vi-74" target="tTHSPChEhPKR0PGT31vi-70" edge="1">
          <mxGeometry relative="1" as="geometry" />
        </mxCell>
        <mxCell id="tTHSPChEhPKR0PGT31vi-74" value="YES" style="text;html=1;align=center;verticalAlign=middle;resizable=0;points=[];autosize=1;strokeColor=#82b366;fillColor=#d5e8d4;" parent="1" vertex="1">
          <mxGeometry x="615" y="1390" width="40" height="20" as="geometry" />
        </mxCell>
        <mxCell id="tTHSPChEhPKR0PGT31vi-82" value="/checkout/pagos/payment&lt;br&gt;POST" style="whiteSpace=wrap;html=1;" parent="1" vertex="1">
          <mxGeometry x="662.5" y="1520" width="140" height="40" as="geometry" />
        </mxCell>
        <mxCell id="tTHSPChEhPKR0PGT31vi-83" style="edgeStyle=orthogonalEdgeStyle;rounded=0;orthogonalLoop=1;jettySize=auto;html=1;fontSize=9;" parent="1" source="tTHSPChEhPKR0PGT31vi-82" edge="1">
          <mxGeometry relative="1" as="geometry">
            <mxPoint x="732.5" y="1585" as="targetPoint" />
          </mxGeometry>
        </mxCell>
        <mxCell id="tTHSPChEhPKR0PGT31vi-84" value="req.query.ongoingPurchase?" style="text;html=1;align=center;verticalAlign=middle;resizable=0;points=[];autosize=1;strokeColor=default;fillColor=none;" parent="1" vertex="1">
          <mxGeometry x="652.5" y="1585" width="170" height="20" as="geometry" />
        </mxCell>
        <mxCell id="tTHSPChEhPKR0PGT31vi-85" style="edgeStyle=orthogonalEdgeStyle;rounded=0;orthogonalLoop=1;jettySize=auto;html=1;" parent="1" source="tTHSPChEhPKR0PGT31vi-84" target="tTHSPChEhPKR0PGT31vi-87" edge="1">
          <mxGeometry relative="1" as="geometry" />
        </mxCell>
        <mxCell id="tTHSPChEhPKR0PGT31vi-86" value="" style="endArrow=classic;html=1;rounded=0;" parent="1" edge="1">
          <mxGeometry width="50" height="50" relative="1" as="geometry">
            <mxPoint x="732.5" y="1625" as="sourcePoint" />
            <mxPoint x="810" y="1640" as="targetPoint" />
            <Array as="points">
              <mxPoint x="810" y="1625" />
            </Array>
          </mxGeometry>
        </mxCell>
        <mxCell id="tTHSPChEhPKR0PGT31vi-87" value="YES" style="text;html=1;align=center;verticalAlign=middle;resizable=0;points=[];autosize=1;strokeColor=#82b366;fillColor=#d5e8d4;" parent="1" vertex="1">
          <mxGeometry x="657.5" y="1630" width="40" height="20" as="geometry" />
        </mxCell>
        <mxCell id="tTHSPChEhPKR0PGT31vi-88" value="&lt;font style=&quot;font-size: 9px&quot;&gt;paymentStep.findOne?&lt;br&gt;deliveryAddress:ongoingPurchase&lt;br&gt;&lt;/font&gt;" style="text;html=1;align=center;verticalAlign=middle;resizable=0;points=[];autosize=1;strokeColor=default;" parent="1" vertex="1">
          <mxGeometry x="597.5" y="1655" width="150" height="40" as="geometry" />
        </mxCell>
        <mxCell id="tTHSPChEhPKR0PGT31vi-89" value="non-existent" style="whiteSpace=wrap;html=1;fillColor=#f8cecc;strokeColor=#b85450;" parent="1" vertex="1">
          <mxGeometry x="785" y="1640" width="60" height="30" as="geometry" />
        </mxCell>
        <mxCell id="tTHSPChEhPKR0PGT31vi-90" value="non-existent, choose&lt;br&gt;formaDePago first" style="whiteSpace=wrap;html=1;fillColor=#f8cecc;strokeColor=#b85450;" parent="1" vertex="1">
          <mxGeometry x="530" y="1700" width="120" height="40" as="geometry" />
        </mxCell>
        <mxCell id="tTHSPChEhPKR0PGT31vi-91" value="" style="endArrow=classic;html=1;rounded=0;edgeStyle=orthogonalEdgeStyle;" parent="1" target="tTHSPChEhPKR0PGT31vi-92" edge="1">
          <mxGeometry width="50" height="50" relative="1" as="geometry">
            <mxPoint x="672.5" y="1705" as="sourcePoint" />
            <mxPoint x="652.5" y="1745" as="targetPoint" />
            <Array as="points">
              <mxPoint x="673" y="1745" />
              <mxPoint x="660" y="1745" />
              <mxPoint x="660" y="1764" />
            </Array>
          </mxGeometry>
        </mxCell>
        <mxCell id="tTHSPChEhPKR0PGT31vi-92" value="ownership" style="text;html=1;align=center;verticalAlign=middle;resizable=0;points=[];autosize=1;strokeColor=#b85450;fillColor=#f8cecc;" parent="1" vertex="1">
          <mxGeometry x="575" y="1754" width="70" height="20" as="geometry" />
        </mxCell>
        <mxCell id="tTHSPChEhPKR0PGT31vi-93" style="edgeStyle=orthogonalEdgeStyle;rounded=0;orthogonalLoop=1;jettySize=auto;html=1;entryX=1.022;entryY=0.372;entryDx=0;entryDy=0;entryPerimeter=0;" parent="1" source="tTHSPChEhPKR0PGT31vi-88" target="tTHSPChEhPKR0PGT31vi-90" edge="1">
          <mxGeometry relative="1" as="geometry">
            <mxPoint x="652.5" y="1705" as="targetPoint" />
          </mxGeometry>
        </mxCell>
        <mxCell id="tTHSPChEhPKR0PGT31vi-94" value="" style="endArrow=classic;html=1;rounded=0;" parent="1" edge="1">
          <mxGeometry width="50" height="50" relative="1" as="geometry">
            <mxPoint x="672.5" y="1745" as="sourcePoint" />
            <mxPoint x="672.5" y="1785" as="targetPoint" />
          </mxGeometry>
        </mxCell>
        <mxCell id="tTHSPChEhPKR0PGT31vi-95" value="YES" style="text;html=1;align=center;verticalAlign=middle;resizable=0;points=[];autosize=1;strokeColor=#82b366;fillColor=#d5e8d4;" parent="1" vertex="1">
          <mxGeometry x="652.5" y="1785" width="40" height="20" as="geometry" />
        </mxCell>
        <mxCell id="tTHSPChEhPKR0PGT31vi-98" value="Agrego formaDePago&lt;br&gt;+ prods actualizados&lt;br&gt;VER dsp como&lt;br&gt;notifico stock" style="text;html=1;align=center;verticalAlign=middle;resizable=0;points=[];autosize=1;strokeColor=#9673a6;fillColor=#e1d5e7;" parent="1" vertex="1">
          <mxGeometry x="150" y="350" width="130" height="60" as="geometry" />
        </mxCell>
        <mxCell id="2nWrkRlHyeW5uhqLxSTE-1" value="" style="endArrow=none;html=1;rounded=0;strokeColor=#CC6600;strokeWidth=7;" edge="1" parent="1">
          <mxGeometry width="50" height="50" relative="1" as="geometry">
            <mxPoint x="990" y="1822" as="sourcePoint" />
            <mxPoint x="1000" y="100" as="targetPoint" />
          </mxGeometry>
        </mxCell>
        <mxCell id="2nWrkRlHyeW5uhqLxSTE-2" value="/productos/:id&lt;br&gt;PUT" style="whiteSpace=wrap;html=1;" vertex="1" parent="1">
          <mxGeometry x="1090" y="120" width="120" height="40" as="geometry" />
        </mxCell>
        <mxCell id="2nWrkRlHyeW5uhqLxSTE-4" style="edgeStyle=orthogonalEdgeStyle;rounded=0;orthogonalLoop=1;jettySize=auto;html=1;exitX=0.436;exitY=0.982;exitDx=0;exitDy=0;exitPerimeter=0;" edge="1" parent="1" source="2nWrkRlHyeW5uhqLxSTE-2">
          <mxGeometry relative="1" as="geometry">
            <mxPoint x="1140" y="180" as="targetPoint" />
            <mxPoint x="1140" y="170" as="sourcePoint" />
            <Array as="points">
              <mxPoint x="1140" y="159" />
            </Array>
          </mxGeometry>
        </mxCell>
        <mxCell id="2nWrkRlHyeW5uhqLxSTE-5" value="Producto.findById(req.params._id)" style="text;html=1;align=center;verticalAlign=middle;resizable=0;points=[];autosize=1;strokeColor=default;fillColor=none;" vertex="1" parent="1">
          <mxGeometry x="1060" y="180" width="200" height="20" as="geometry" />
        </mxCell>
        <mxCell id="2nWrkRlHyeW5uhqLxSTE-13" value="" style="edgeStyle=orthogonalEdgeStyle;rounded=0;orthogonalLoop=1;jettySize=auto;html=1;" edge="1" source="2nWrkRlHyeW5uhqLxSTE-14" parent="1">
          <mxGeometry relative="1" as="geometry">
            <mxPoint x="1080" y="270" as="targetPoint" />
          </mxGeometry>
        </mxCell>
        <mxCell id="2nWrkRlHyeW5uhqLxSTE-14" value="YES" style="text;html=1;align=center;verticalAlign=middle;resizable=0;points=[];autosize=1;strokeColor=#82b366;fillColor=#d5e8d4;" vertex="1" parent="1">
          <mxGeometry x="1060" y="245" width="40" height="20" as="geometry" />
        </mxCell>
        <mxCell id="2nWrkRlHyeW5uhqLxSTE-15" value="&lt;div style=&quot;color: rgb(212 , 212 , 212) ; background-color: rgb(30 , 30 , 30) ; font-family: &amp;#34;consolas&amp;#34; , &amp;#34;courier new&amp;#34; , monospace ; font-size: 14px ; line-height: 19px&quot;&gt;&lt;span style=&quot;color: #c586c0&quot;&gt;for&lt;/span&gt; (&lt;span style=&quot;color: #569cd6&quot;&gt;let&lt;/span&gt; &lt;span style=&quot;color: #9cdcfe&quot;&gt;key&lt;/span&gt; &lt;span style=&quot;color: #569cd6&quot;&gt;in&lt;/span&gt;&amp;nbsp;&lt;/div&gt;&lt;div style=&quot;color: rgb(212 , 212 , 212) ; background-color: rgb(30 , 30 , 30) ; font-family: &amp;#34;consolas&amp;#34; , &amp;#34;courier new&amp;#34; , monospace ; font-size: 14px ; line-height: 19px&quot;&gt;&lt;span style=&quot;color: #9cdcfe&quot;&gt;req&lt;/span&gt;.&lt;span style=&quot;color: #9cdcfe&quot;&gt;body&lt;/span&gt;)&lt;/div&gt;" style="text;html=1;align=center;verticalAlign=middle;resizable=0;points=[];autosize=1;strokeColor=default;" vertex="1" parent="1">
          <mxGeometry x="1010" y="270" width="140" height="40" as="geometry" />
        </mxCell>
        <mxCell id="2nWrkRlHyeW5uhqLxSTE-16" value="" style="edgeStyle=orthogonalEdgeStyle;rounded=0;orthogonalLoop=1;jettySize=auto;html=1;" edge="1" parent="1">
          <mxGeometry relative="1" as="geometry">
            <mxPoint x="1217.47" y="240" as="targetPoint" />
            <Array as="points">
              <mxPoint x="1147.47" y="220" />
              <mxPoint x="1217.47" y="220" />
              <mxPoint x="1217.47" y="240" />
            </Array>
            <mxPoint x="1147.5288235294122" y="200" as="sourcePoint" />
          </mxGeometry>
        </mxCell>
        <mxCell id="2nWrkRlHyeW5uhqLxSTE-17" value="" style="edgeStyle=orthogonalEdgeStyle;rounded=0;orthogonalLoop=1;jettySize=auto;html=1;" edge="1" parent="1">
          <mxGeometry relative="1" as="geometry">
            <mxPoint x="1082.47" y="240" as="targetPoint" />
            <Array as="points">
              <mxPoint x="1147.47" y="220" />
              <mxPoint x="1082.47" y="220" />
            </Array>
            <mxPoint x="1147.5288235294122" y="200" as="sourcePoint" />
          </mxGeometry>
        </mxCell>
        <mxCell id="2nWrkRlHyeW5uhqLxSTE-18" value="non-existent" style="whiteSpace=wrap;html=1;fillColor=#f8cecc;strokeColor=#b85450;" vertex="1" parent="1">
          <mxGeometry x="1190" y="240" width="60" height="30" as="geometry" />
        </mxCell>
        <mxCell id="2nWrkRlHyeW5uhqLxSTE-20" value="" style="endArrow=classic;html=1;rounded=0;strokeColor=#000000;strokeWidth=1;exitX=0.466;exitY=1.026;exitDx=0;exitDy=0;exitPerimeter=0;" edge="1" parent="1" source="2nWrkRlHyeW5uhqLxSTE-15">
          <mxGeometry width="50" height="50" relative="1" as="geometry">
            <mxPoint x="1140" y="520" as="sourcePoint" />
            <mxPoint x="1075" y="330" as="targetPoint" />
          </mxGeometry>
        </mxCell>
        <mxCell id="2nWrkRlHyeW5uhqLxSTE-22" style="edgeStyle=orthogonalEdgeStyle;rounded=0;orthogonalLoop=1;jettySize=auto;html=1;strokeColor=#000000;strokeWidth=1;" edge="1" parent="1" source="2nWrkRlHyeW5uhqLxSTE-21">
          <mxGeometry relative="1" as="geometry">
            <mxPoint x="1040" y="390" as="targetPoint" />
          </mxGeometry>
        </mxCell>
        <mxCell id="2nWrkRlHyeW5uhqLxSTE-68" style="edgeStyle=orthogonalEdgeStyle;rounded=0;orthogonalLoop=1;jettySize=auto;html=1;fontSize=12;strokeColor=#000000;strokeWidth=1;entryX=0.346;entryY=-0.082;entryDx=0;entryDy=0;entryPerimeter=0;" edge="1" parent="1" source="2nWrkRlHyeW5uhqLxSTE-21" target="2nWrkRlHyeW5uhqLxSTE-66">
          <mxGeometry relative="1" as="geometry">
            <mxPoint x="1470" y="370" as="targetPoint" />
            <Array as="points">
              <mxPoint x="1095" y="370" />
              <mxPoint x="1479" y="370" />
            </Array>
          </mxGeometry>
        </mxCell>
        <mxCell id="2nWrkRlHyeW5uhqLxSTE-21" value="req.body[key] instanceof Array?" style="text;html=1;align=center;verticalAlign=middle;resizable=0;points=[];autosize=1;strokeColor=default;fillColor=none;" vertex="1" parent="1">
          <mxGeometry x="1005" y="330" width="180" height="20" as="geometry" />
        </mxCell>
        <mxCell id="2nWrkRlHyeW5uhqLxSTE-26" style="edgeStyle=orthogonalEdgeStyle;rounded=0;orthogonalLoop=1;jettySize=auto;html=1;strokeColor=#000000;strokeWidth=1;" edge="1" parent="1" source="2nWrkRlHyeW5uhqLxSTE-25">
          <mxGeometry relative="1" as="geometry">
            <mxPoint x="1040" y="430" as="targetPoint" />
          </mxGeometry>
        </mxCell>
        <mxCell id="2nWrkRlHyeW5uhqLxSTE-25" value="YES" style="text;html=1;align=center;verticalAlign=middle;resizable=0;points=[];autosize=1;strokeColor=#82b366;fillColor=#d5e8d4;" vertex="1" parent="1">
          <mxGeometry x="1020" y="390" width="40" height="20" as="geometry" />
        </mxCell>
        <mxCell id="2nWrkRlHyeW5uhqLxSTE-33" value="" style="group" vertex="1" connectable="0" parent="1">
          <mxGeometry x="1010" y="460" width="384.5" height="370" as="geometry" />
        </mxCell>
        <mxCell id="2nWrkRlHyeW5uhqLxSTE-34" value="" style="group" vertex="1" connectable="0" parent="2nWrkRlHyeW5uhqLxSTE-33">
          <mxGeometry width="384.5" height="370" as="geometry" />
        </mxCell>
        <mxCell id="2nWrkRlHyeW5uhqLxSTE-46" value="" style="group" vertex="1" connectable="0" parent="2nWrkRlHyeW5uhqLxSTE-34">
          <mxGeometry y="-5.211264917083426" width="384.5" height="375.21126491708344" as="geometry" />
        </mxCell>
        <mxCell id="2nWrkRlHyeW5uhqLxSTE-47" value="" style="group" vertex="1" connectable="0" parent="2nWrkRlHyeW5uhqLxSTE-46">
          <mxGeometry x="4.5" y="-20.84486878125695" width="380" height="396.0561336983404" as="geometry" />
        </mxCell>
        <mxCell id="2nWrkRlHyeW5uhqLxSTE-27" value="&lt;p style=&quot;line-height: 1&quot;&gt;&lt;br&gt;&lt;/p&gt;" style="rounded=0;whiteSpace=wrap;html=1;align=left;container=1;" vertex="1" parent="2nWrkRlHyeW5uhqLxSTE-47">
          <mxGeometry width="380" height="396.0561336983404" as="geometry">
            <mxRectangle width="30" height="40" as="alternateBounds" />
          </mxGeometry>
        </mxCell>
        <mxCell id="2nWrkRlHyeW5uhqLxSTE-41" value="YES" style="text;html=1;align=center;verticalAlign=middle;resizable=0;points=[];autosize=1;strokeColor=#82b366;fillColor=#d5e8d4;" vertex="1" parent="2nWrkRlHyeW5uhqLxSTE-27">
          <mxGeometry x="35.50230483271375" y="213.65674240652123" width="40" height="20" as="geometry" />
        </mxCell>
        <mxCell id="2nWrkRlHyeW5uhqLxSTE-56" value="&lt;div style=&quot;color: rgb(212 , 212 , 212) ; font-family: &amp;#34;consolas&amp;#34; , &amp;#34;courier new&amp;#34; , monospace ; line-height: 19px&quot;&gt;&lt;span style=&quot;background-color: rgb(248 , 249 , 250) ; font-size: 12px ; color: rgb(0 , 0 , 0) ; text-align: left ; font-family: &amp;#34;helvetica&amp;#34;&quot;&gt;prodToUpdate[&lt;/span&gt;&lt;span style=&quot;background-color: rgb(248 , 249 , 250) ; font-size: 12px ; color: rgb(0 , 0 , 0) ; text-align: left ; font-family: &amp;#34;helvetica&amp;#34;&quot;&gt;&lt;font color=&quot;#9cdcfe&quot; face=&quot;consolas, courier new, monospace&quot;&gt;&lt;span style=&quot;font-size: 14px ; background-color: rgb(30 , 30 , 30)&quot;&gt;key&lt;/span&gt;&lt;/font&gt;&lt;/span&gt;&lt;span style=&quot;background-color: rgb(248 , 249 , 250) ; font-size: 12px ; color: rgb(0 , 0 , 0) ; text-align: left ; font-family: &amp;#34;helvetica&amp;#34;&quot;&gt;].push(&lt;/span&gt;&lt;span style=&quot;color: rgb(0 , 0 , 0) ; text-align: left ; font-family: &amp;#34;helvetica&amp;#34; ; background-color: rgb(229 , 204 , 255)&quot;&gt;&lt;font style=&quot;font-size: 12px&quot;&gt;it&lt;/font&gt;&lt;/span&gt;&lt;span style=&quot;background-color: rgb(248 , 249 , 250) ; font-size: 12px ; color: rgb(0 , 0 , 0) ; text-align: left ; font-family: &amp;#34;helvetica&amp;#34;&quot;&gt;)&lt;/span&gt;&lt;br&gt;&lt;/div&gt;" style="rounded=0;whiteSpace=wrap;html=1;" vertex="1" parent="2nWrkRlHyeW5uhqLxSTE-27">
          <mxGeometry x="185.5" y="308.1561887157851" width="153.5" height="52.80751673183802" as="geometry" />
        </mxCell>
        <mxCell id="2nWrkRlHyeW5uhqLxSTE-23" value="a &lt;font style=&quot;font-size: 15px&quot;&gt;ESP&lt;/font&gt; (un array de objetos con&lt;br&gt;_id, tamaño, stock y precio)&lt;br&gt;le damos trato diferente" style="text;html=1;align=center;verticalAlign=middle;resizable=0;points=[];autosize=1;strokeColor=#9673a6;glass=0;sketch=0;fillColor=#e1d5e7;" vertex="1" parent="2nWrkRlHyeW5uhqLxSTE-27">
          <mxGeometry x="151.01999999999998" y="6.600697801034901" width="190" height="50" as="geometry" />
        </mxCell>
        <mxCell id="2nWrkRlHyeW5uhqLxSTE-53" value="&lt;div style=&quot;color: rgb(212 , 212 , 212) ; background-color: rgb(30 , 30 , 30) ; font-family: &amp;#34;consolas&amp;#34; , &amp;#34;courier new&amp;#34; , monospace ; font-size: 14px ; line-height: 19px&quot;&gt;&lt;span style=&quot;color: rgb(0 , 0 , 0) ; font-size: 12px ; text-align: left ; font-family: &amp;#34;helvetica&amp;#34; ; background-color: rgb(248 , 249 , 250)&quot;&gt;prodToUpdate[&lt;/span&gt;&lt;span style=&quot;color: rgb(0 , 0 , 0) ; font-size: 12px ; text-align: left ; font-family: &amp;#34;helvetica&amp;#34; ; background-color: rgb(248 , 249 , 250)&quot;&gt;&lt;font color=&quot;#9cdcfe&quot; face=&quot;consolas, courier new, monospace&quot;&gt;&lt;span style=&quot;font-size: 14px ; background-color: rgb(30 , 30 , 30)&quot;&gt;key&lt;/span&gt;&lt;/font&gt;&lt;/span&gt;&lt;span style=&quot;color: rgb(0 , 0 , 0) ; font-size: 12px ; text-align: left ; font-family: &amp;#34;helvetica&amp;#34; ; background-color: rgb(248 , 249 , 250)&quot;&gt;]&lt;/span&gt;&lt;br&gt;&lt;/div&gt;&lt;span style=&quot;font-family: &amp;#34;helvetica&amp;#34; ; text-align: left&quot;&gt;[i&lt;/span&gt;&lt;b style=&quot;font-family: &amp;#34;helvetica&amp;#34; ; text-align: left&quot;&gt;ndexTamañoFound]&lt;/b&gt;&lt;span style=&quot;font-family: &amp;#34;helvetica&amp;#34; ; text-align: left&quot;&gt;=&lt;font style=&quot;font-size: 14px ; background-color: rgb(255 , 204 , 255)&quot;&gt;it&lt;/font&gt;&lt;/span&gt;" style="rounded=0;whiteSpace=wrap;html=1;" vertex="1" parent="2nWrkRlHyeW5uhqLxSTE-27">
          <mxGeometry x="5.5000743494423805" y="308.1536808626157" width="141.2639405204461" height="52.802745359888306" as="geometry" />
        </mxCell>
        <mxCell id="2nWrkRlHyeW5uhqLxSTE-61" value="agregamos nuevo&lt;br&gt;tamaño" style="text;html=1;align=center;verticalAlign=middle;resizable=0;points=[];autosize=1;strokeColor=#9673a6;glass=0;sketch=0;fillColor=#e1d5e7;" vertex="1" parent="2nWrkRlHyeW5uhqLxSTE-27">
          <mxGeometry x="195.49999999999997" y="266.1216906717895" width="110" height="30" as="geometry" />
        </mxCell>
        <mxCell id="2nWrkRlHyeW5uhqLxSTE-51" value="" style="endArrow=classic;html=1;rounded=0;strokeColor=#000000;strokeWidth=1;entryX=0.35;entryY=0.031;entryDx=0;entryDy=0;entryPerimeter=0;" edge="1" parent="2nWrkRlHyeW5uhqLxSTE-27" source="2nWrkRlHyeW5uhqLxSTE-41" target="2nWrkRlHyeW5uhqLxSTE-53">
          <mxGeometry width="50" height="50" relative="1" as="geometry">
            <mxPoint x="54.41000000000008" y="245.45260576981988" as="sourcePoint" />
            <mxPoint x="54.5" y="255.3517900500111" as="targetPoint" />
          </mxGeometry>
        </mxCell>
        <mxCell id="2nWrkRlHyeW5uhqLxSTE-30" value="&lt;span style=&quot;color: rgb(0 , 0 , 0) ; font-family: &amp;#34;helvetica&amp;#34; ; font-size: 12px ; font-style: normal ; font-weight: 400 ; letter-spacing: normal ; text-indent: 0px ; text-transform: none ; word-spacing: 0px ; background-color: rgb(248 , 249 , 250)&quot;&gt;const i&lt;b&gt;ndexTamañoFound&lt;/b&gt;= prodToUpdate[&lt;/span&gt;&lt;span style=&quot;color: rgb(0 , 0 , 0) ; font-family: &amp;#34;helvetica&amp;#34; ; font-size: 12px ; font-style: normal ; font-weight: 400 ; letter-spacing: normal ; text-indent: 0px ; text-transform: none ; word-spacing: 0px ; background-color: rgb(248 , 249 , 250)&quot;&gt;&lt;font color=&quot;#9cdcfe&quot; face=&quot;consolas, courier new, monospace&quot;&gt;&lt;span style=&quot;font-size: 14px ; background-color: rgb(30 , 30 , 30)&quot;&gt;key&lt;/span&gt;&lt;/font&gt;&lt;/span&gt;&lt;span style=&quot;color: rgb(0 , 0 , 0) ; font-family: &amp;#34;helvetica&amp;#34; ; font-size: 12px ; font-style: normal ; font-weight: 400 ; letter-spacing: normal ; text-indent: 0px ; text-transform: none ; word-spacing: 0px ; background-color: rgb(248 , 249 , 250)&quot;&gt;].findIndex(i.tamaño ==it.tamaño)&lt;/span&gt;" style="rounded=0;whiteSpace=wrap;html=1;align=left;" vertex="1" parent="2nWrkRlHyeW5uhqLxSTE-47">
          <mxGeometry x="10" y="76.15870358642245" width="220" height="111.30887447246357" as="geometry" />
        </mxCell>
        <mxCell id="2nWrkRlHyeW5uhqLxSTE-38" value="" style="endArrow=classic;html=1;rounded=0;strokeColor=#000000;strokeWidth=1;exitX=0.5;exitY=1;exitDx=0;exitDy=0;entryX=0.987;entryY=0.388;entryDx=0;entryDy=0;entryPerimeter=0;" edge="1" parent="2nWrkRlHyeW5uhqLxSTE-47" source="2nWrkRlHyeW5uhqLxSTE-30" target="2nWrkRlHyeW5uhqLxSTE-12">
          <mxGeometry width="50" height="50" relative="1" as="geometry">
            <mxPoint x="120" y="476.8706516872914" as="sourcePoint" />
            <mxPoint x="170" y="365.56177721482777" as="targetPoint" />
          </mxGeometry>
        </mxCell>
        <mxCell id="2nWrkRlHyeW5uhqLxSTE-62" style="edgeStyle=orthogonalEdgeStyle;rounded=0;orthogonalLoop=1;jettySize=auto;html=1;fontSize=12;strokeColor=#000000;strokeWidth=1;" edge="1" parent="2nWrkRlHyeW5uhqLxSTE-47" source="2nWrkRlHyeW5uhqLxSTE-12" target="2nWrkRlHyeW5uhqLxSTE-61">
          <mxGeometry relative="1" as="geometry" />
        </mxCell>
        <mxCell id="2nWrkRlHyeW5uhqLxSTE-12" value="NO" style="text;html=1;align=center;verticalAlign=middle;resizable=0;points=[];autosize=1;strokeColor=#b85450;fillColor=#f8cecc;" vertex="1" parent="2nWrkRlHyeW5uhqLxSTE-47">
          <mxGeometry x="235.5" y="213.6582722852158" width="30" height="20" as="geometry" />
        </mxCell>
        <mxCell id="2nWrkRlHyeW5uhqLxSTE-40" value="" style="endArrow=classic;html=1;rounded=0;strokeColor=#000000;strokeWidth=1;exitX=0.5;exitY=1;exitDx=0;exitDy=0;" edge="1" parent="2nWrkRlHyeW5uhqLxSTE-47" source="2nWrkRlHyeW5uhqLxSTE-30" target="2nWrkRlHyeW5uhqLxSTE-41">
          <mxGeometry width="50" height="50" relative="1" as="geometry">
            <mxPoint x="140" y="321.03822742584236" as="sourcePoint" />
            <mxPoint x="160" y="231.99112784787144" as="targetPoint" />
          </mxGeometry>
        </mxCell>
        <mxCell id="2nWrkRlHyeW5uhqLxSTE-45" value="&lt;p style=&quot;line-height: 1&quot;&gt;&lt;span style=&quot;font-size: 13px&quot;&gt;.forEach(&lt;/span&gt;&lt;font style=&quot;font-size: 15px ; background-color: rgb(229 , 204 , 255)&quot;&gt;it&lt;/font&gt;&lt;span style=&quot;font-size: 13px&quot;&gt;=&amp;gt;&amp;nbsp;&lt;/span&gt;&lt;/p&gt;" style="rounded=0;whiteSpace=wrap;html=1;" vertex="1" parent="2nWrkRlHyeW5uhqLxSTE-47">
          <mxGeometry x="10" y="9.373378902944305" width="70" height="44.523549788985434" as="geometry" />
        </mxCell>
        <mxCell id="2nWrkRlHyeW5uhqLxSTE-64" style="edgeStyle=orthogonalEdgeStyle;rounded=0;orthogonalLoop=1;jettySize=auto;html=1;fontSize=12;strokeColor=#000000;strokeWidth=1;" edge="1" parent="1" source="2nWrkRlHyeW5uhqLxSTE-27">
          <mxGeometry relative="1" as="geometry">
            <mxPoint x="1204.5" y="860" as="targetPoint" />
          </mxGeometry>
        </mxCell>
        <mxCell id="2nWrkRlHyeW5uhqLxSTE-65" value="" style="rounded=0;whiteSpace=wrap;html=1;labelBackgroundColor=#E5CCFF;fontSize=12;" vertex="1" parent="1">
          <mxGeometry x="730" y="670" width="120" height="60" as="geometry" />
        </mxCell>
        <mxCell id="2nWrkRlHyeW5uhqLxSTE-70" style="edgeStyle=orthogonalEdgeStyle;rounded=0;orthogonalLoop=1;jettySize=auto;html=1;fontSize=15;strokeColor=#000000;strokeWidth=1;entryX=1;entryY=1;entryDx=0;entryDy=0;" edge="1" parent="1" source="2nWrkRlHyeW5uhqLxSTE-66" target="2nWrkRlHyeW5uhqLxSTE-67">
          <mxGeometry relative="1" as="geometry">
            <mxPoint x="1510.6764705882354" y="870" as="targetPoint" />
            <Array as="points">
              <mxPoint x="1510" y="880" />
            </Array>
          </mxGeometry>
        </mxCell>
        <mxCell id="2nWrkRlHyeW5uhqLxSTE-66" value="&lt;span style=&quot;background-color: rgb(255 , 255 , 255)&quot;&gt;prodToUpdate[&lt;/span&gt;&lt;span style=&quot;color: rgb(156 , 220 , 254) ; font-family: &amp;#34;consolas&amp;#34; , &amp;#34;courier new&amp;#34; , monospace ; font-size: 14px ; text-align: left ; background-color: rgb(30 , 30 , 30)&quot;&gt;key&lt;/span&gt;&lt;span style=&quot;background-color: rgb(255 , 255 , 255)&quot;&gt;]=req.body[&lt;/span&gt;&lt;span style=&quot;color: rgb(156 , 220 , 254) ; font-family: &amp;#34;consolas&amp;#34; , &amp;#34;courier new&amp;#34; , monospace ; font-size: 14px ; text-align: left ; background-color: rgb(30 , 30 , 30)&quot;&gt;key&lt;/span&gt;&lt;span style=&quot;background-color: rgb(255 , 255 , 255)&quot;&gt;]&lt;/span&gt;" style="rounded=0;whiteSpace=wrap;html=1;labelBackgroundColor=#E5CCFF;fontSize=12;" vertex="1" parent="1">
          <mxGeometry x="1410" y="750" width="199" height="30" as="geometry" />
        </mxCell>
        <mxCell id="2nWrkRlHyeW5uhqLxSTE-67" value="&lt;span style=&quot;background-color: rgb(255 , 255 , 255)&quot;&gt;prodToUpdate.save()&lt;/span&gt;" style="rounded=0;whiteSpace=wrap;html=1;labelBackgroundColor=#E5CCFF;fontSize=12;" vertex="1" parent="1">
          <mxGeometry x="1150" y="860" width="120" height="20" as="geometry" />
        </mxCell>
        <mxCell id="2nWrkRlHyeW5uhqLxSTE-69" value="" style="rounded=0;whiteSpace=wrap;html=1;labelBackgroundColor=#FFFFFF;fontSize=15;" vertex="1" parent="1">
          <mxGeometry x="670" y="340" width="120" height="60" as="geometry" />
        </mxCell>
        <mxCell id="2nWrkRlHyeW5uhqLxSTE-71" value="SI QUIERO BORRAR&amp;nbsp;&lt;br&gt;UN TAMAñO EN ESP&lt;br&gt;HAGO UPDATE&lt;br&gt;O DELETE?" style="text;html=1;align=center;verticalAlign=middle;resizable=0;points=[];autosize=1;strokeColor=#b85450;fillColor=#f8cecc;fontColor=#990000;" vertex="1" parent="1">
          <mxGeometry x="1545" y="545" width="140" height="60" as="geometry" />
        </mxCell>
        <mxCell id="2nWrkRlHyeW5uhqLxSTE-73" value="" style="endArrow=classic;html=1;rounded=0;fontSize=15;strokeColor=#FF5E19;strokeWidth=1;exitX=1;exitY=0.5;exitDx=0;exitDy=0;" edge="1" parent="1" source="2nWrkRlHyeW5uhqLxSTE-27">
          <mxGeometry width="50" height="50" relative="1" as="geometry">
            <mxPoint x="1520" y="520" as="sourcePoint" />
            <mxPoint x="1540" y="600" as="targetPoint" />
          </mxGeometry>
        </mxCell>
      </root>
    </mxGraphModel>
  </diagram>
</mxfile>
